<?xml version="1.0" encoding="utf-8"?>
<!-- Generator: Adobe Illustrator 21.0.0, SVG Export Plug-In . SVG Version: 6.00 Build 0)  -->
<svg version="1.1" id="Layer_1" xmlns="http://www.w3.org/2000/svg" xmlns:xlink="http://www.w3.org/1999/xlink" x="0px" y="0px"
	 viewBox="0 0 128 128" style="enable-background:new 0 0 128 128;" xml:space="preserve">
<path style="fill:#338ABD;" d="M127.447,40.195l-18.161-18.19c-0.921-0.922-2.415-0.921-3.335,0.001l-17.945,18
	c-0.916,0.919-0.917,2.405-0.001,3.325L108.58,64c0,0,18.223-16.915,19.309-22.444C127.987,41.056,127.807,40.556,127.447,40.195z"
	/>
<path style="fill:#97D4F9;" d="M127.932,41.06C127.94,46.111,108.58,64,108.58,64L64,108.59c0,0-21.789,20.975-25.211,17.472
	c0.002,0.002,0.857,0.876,0.857,0.876c0.882,0.759,1.577,1.062,3.156,1.062h42.53c1.249,0,2.448-0.496,3.331-1.38l37.974-37.974
	c0.984-1.067,1.38-1.913,1.38-3.331L127.932,41.06z"/>
<path style="fill:#338ABD;" d="M64,108.59L19.392,63.984C10.81,72.077-1.866,85.376,1.72,88.969l37.068,37.092
	C42.258,129.566,64,108.59,64,108.59z"/>
<path style="fill:#97D4F9;" d="M19.392,63.984l63.187-63.18C82.876,0.507,82.666,0,82.246,0H42.63c-1.249,0-2.448,0.496-3.331,1.38
	L1.363,39.321c-0.883,0.883-1.379,2.081-1.379,3.331v43.472c0,0.773,0.084,1.134,0.776,1.826l0.961,1.019
	C-1.95,85.146,11.474,71.948,19.392,63.984z"/>
</svg>
